<?xml version="1.0" standalone="no"?>
<svg version="1.0" xmlns="http://www.w3.org/2000/svg"
    width="102" height="102" viewBox="0 0 216.000000 233.000000">

    <g transform="translate(0.000000,233.000000) scale(0.100000,-0.100000)"
        fill="#FFFFFF" stroke="none">
        <path d="M825 1721 c-83 -21 -161 -85 -191 -157 -8 -18 -14 -64 -14 -102 0
-160 122 -274 280 -259 217 19 318 280 169 436 -62 66 -168 101 -244 82z m153
-55 c133 -69 165 -239 67 -353 -70 -83 -205 -99 -297 -35 -57 39 -98 115 -98
181 0 94 69 190 157 218 47 16 131 10 171 -11z"/>
        <path d="M730 1594 c-36 -42 -53 -81 -45 -103 4 -10 13 1 29 35 13 27 33 58
45 68 11 11 21 23 21 28 0 17 -19 7 -50 -28z"/>
        <path d="M794 1460 c-28 -36 -53 -59 -61 -56 -10 4 -10 1 0 -15 12 -19 13 -18
39 13 l28 33 20 -25 c16 -19 19 -34 15 -65 -12 -85 -15 -80 44 -83 l54 -3 -6
43 c-3 24 -9 51 -12 60 -4 9 4 27 18 44 l24 28 25 -29 c14 -16 30 -25 36 -21
16 10 15 27 0 21 -7 -2 -33 22 -58 55 -40 53 -49 59 -82 60 -33 0 -41 -6 -84
-60z"/>
        <path d="M824 1143 c-3 -21 -14 -80 -25 -131 l-19 -93 47 -69 c25 -39 49 -70
52 -70 4 0 26 31 49 70 l43 69 -23 131 -23 130 -47 0 c-47 0 -47 0 -54 -37z"/>
        <path d="M1099 1172 l-56 -3 5 -54 c2 -30 2 -60 -1 -67 -2 -7 -6 -17 -8 -23
-5 -12 72 -7 86 6 5 6 3 9 -8 9 -10 0 -17 8 -17 20 0 15 7 20 25 20 14 0 25 5
25 10 0 6 -11 10 -25 10 -18 0 -25 5 -25 20 0 22 26 28 33 8 7 -20 29 6 25 28
-3 16 -11 19 -59 16z"/>
        <path d="M1188 1158 c15 -15 16 -110 1 -125 -8 -8 0 -12 29 -15 l39 -3 -5 62
c-3 42 -1 68 8 78 11 13 6 15 -36 15 -37 0 -45 -3 -36 -12z"/>
        <path d="M1290 1160 c0 -5 5 -10 11 -10 11 0 8 -76 -5 -115 -6 -18 -3 -20 28
-20 35 0 46 8 26 20 -12 7 -14 55 -2 55 4 0 17 -18 30 -41 40 -69 59 -49 75
79 l5 42 -34 0 c-19 0 -34 -4 -34 -10 0 -5 5 -10 10 -10 6 0 10 -11 10 -25 0
-35 -13 -31 -33 10 -14 30 -21 35 -52 35 -19 0 -35 -4 -35 -10z"/>
        <path d="M1488 1159 c15 -16 16 -111 0 -127 -7 -7 -10 -12 -7 -13 107 -13 144
1 155 58 5 25 2 45 -7 62 -13 23 -22 26 -84 29 -56 2 -68 1 -57 -9z m98 -45
c11 -42 -25 -99 -38 -61 -3 6 -3 29 0 50 5 43 28 50 38 11z"/>
        <path d="M1036 961 c-4 -5 -1 -11 5 -13 14 -5 13 -136 -1 -153 -14 -17 0 -25
27 -14 25 9 30 25 36 122 l5 67 -34 0 c-18 0 -35 -4 -38 -9z"/>
        <path d="M1141 944 c-46 -58 -15 -134 54 -134 50 0 75 29 75 84 0 35 -5 48
-22 60 -35 25 -83 20 -107 -10z m75 -28 c9 -37 1 -70 -18 -74 -15 -3 -18 4
-18 47 0 38 4 51 15 51 8 0 17 -11 21 -24z"/>
        <path d="M1285 960 c-3 -5 -1 -10 4 -10 7 0 11 -24 11 -60 0 -33 -4 -60 -10
-60 -5 0 -10 -4 -10 -10 0 -6 28 -10 63 -10 50 0 68 4 81 19 18 20 14 61 -5
61 -5 0 -4 9 3 20 23 36 0 55 -70 58 -34 2 -63 -2 -67 -8z m93 -37 c-5 -25
-28 -28 -28 -4 0 12 6 21 16 21 9 0 14 -7 12 -17z m1 -56 c12 -15 5 -27 -16
-27 -7 0 -13 9 -13 20 0 23 13 26 29 7z"/>
    </g>
</svg>